<svg xmlns="http://www.w3.org/2000/svg" viewBox="0 0 400 450" fill="none">
  <defs>
    <linearGradient id="indiaGrad" x1="0%" y1="0%" x2="100%" y2="100%">
      <stop offset="0%" stop-color="#334155" stop-opacity="0.4"/>
      <stop offset="100%" stop-color="#1e293b" stop-opacity="0.2"/>
    </linearGradient>
  </defs>
  <!-- India Map Outline - Simplified but Recognizable -->
  <path d="
    M 140 20
    C 150 15, 165 18, 175 12
    C 185 8, 195 15, 205 10
    C 215 5, 225 12, 235 8
    C 245 12, 250 20, 245 28
    L 238 35
    C 232 40, 225 35, 218 42
    C 212 48, 205 45, 198 52
    C 192 58, 185 55, 178 62
    L 170 72
    C 165 80, 158 78, 152 88
    C 146 98, 140 95, 135 108
    C 130 120, 125 118, 120 132
    C 115 145, 110 142, 108 158
    C 106 175, 110 185, 115 200
    C 120 215, 128 225, 138 242
    C 148 258, 160 272, 175 290
    C 190 308, 208 322, 225 340
    C 215 355, 200 352, 185 345
    C 170 338, 155 328, 142 315
    C 128 302, 118 288, 110 272
    C 102 256, 96 240, 92 222
    C 88 205, 90 188, 95 170
    C 100 152, 108 135, 118 118
    C 128 102, 140 88, 150 72
    C 155 62, 148 52, 145 42
    C 142 32, 138 25, 140 20
    Z

    M 245 28
    C 255 32, 268 38, 280 45
    C 292 52, 305 62, 318 75
    C 330 88, 342 102, 352 118
    C 362 135, 370 152, 375 170
    C 365 162, 355 152, 342 145
    C 328 138, 315 132, 300 128
    C 285 124, 270 122, 255 125
    C 248 115, 242 105, 238 95
    C 234 85, 235 75, 238 65
    C 241 55, 248 45, 252 35
    L 245 28
    Z

    M 375 170
    C 378 185, 376 200, 372 218
    C 368 235, 360 255, 350 275
    C 340 295, 328 318, 312 338
    C 296 358, 278 375, 258 388
    C 245 378, 235 365, 225 340

    M 225 340
    C 238 355, 252 368, 262 382
    C 272 396, 278 412, 268 425
    C 258 435, 242 432, 228 422
    C 215 412, 205 398, 198 382
    C 192 368, 188 352, 188 338
    C 192 325, 198 315, 208 328
    L 225 340
    Z
  "
  fill="url(#indiaGrad)"
  stroke="#64748b"
  stroke-width="1.5"
  stroke-linejoin="round"
  />

  <!-- Kashmir/Ladakh region -->
  <path d="M 140 20 C 155 8, 180 5, 205 10 C 220 5, 235 8, 245 20"
    fill="none" stroke="#475569" stroke-width="0.5" stroke-dasharray="3,3"/>

  <!-- Northeast region -->
  <path d="M 352 118 C 365 125, 375 140, 375 170"
    fill="none" stroke="#475569" stroke-width="0.5" stroke-dasharray="3,3"/>

  <!-- Central divider hints -->
  <path d="M 150 120 Q 200 150, 250 180 M 130 200 Q 180 220, 230 250"
    fill="none" stroke="#334155" stroke-width="0.3" stroke-dasharray="4,4"/>
</svg>